<svg id="Layer_1" enable-background="new 0 0 512 512" height="512" viewBox="0 0 512 512" width="512" xmlns="http://www.w3.org/2000/svg" xmlns:xlink="http://www.w3.org/1999/xlink"><linearGradient id="SVGID_1_" gradientUnits="userSpaceOnUse" x1="256" x2="256" y1="0" y2="512"><stop offset="0" stop-color="#8df49b"/><stop offset="1" stop-color="#589cf9"/></linearGradient><path d="m452 512h-392c-33.084 0-60-26.916-60-60v-392c0-33.084 26.916-60 60-60h392c33.084 0 60 26.916 60 60v392c0 33.084-26.916 60-60 60zm-392-472c-11.028 0-20 8.972-20 20v392c0 11.028 8.972 20 20 20h392c11.028 0 20-8.972 20-20v-392c0-11.028-8.972-20-20-20zm322.854 398.681-125.42-87.273-125.418 87.273 44.244-146.248-123.324-93.471h154.332l50.167-147.465 50.168 147.465h154.331l-123.325 93.471zm-210.921-199.719 50.676 38.408-18.984 62.75 53.811-37.445 53.811 37.445-18.984-62.75 50.676-38.408h-63.979l-21.525-63.27-21.524 63.27z" fill="url(#SVGID_1_)"/></svg>